<svg
              width="600"
              height="320"
              viewBox="0 0 120 100"
              fill="none"
              xmlns="http://www.w3.org/2000/svg"
            >
              <g id="Frame 1">
                <rect width="120" height="100" fill="transparent" />
                <g id="CoffeCup 1" clip-path="url(#clip0_0_1)">
                  <path
                    id="mug"
                    d="M56.318 93.8021C24.6333 93.2377 7.27118 88.1671 23.1582 84.1175C24.1244 83.8712 24.1241 83.8712 23.6416 84.1635C16.7479 88.3401 35.6486 92.436 61.8153 92.4355C87.2289 92.435 106.057 88.5445 100.41 84.4602C100.135 84.2617 99.9256 84.0992 99.944 84.0992C100.312 84.0992 103.092 85.0241 103.982 85.4423C113.48 89.9085 88.0576 94.3675 56.318 93.8021ZM55.7219 82.9997C43.9135 81.4381 34.5115 75.4198 31.8098 67.6932C31.6822 67.3284 31.5556 66.9693 31.5285 66.8954L31.4791 66.7609L31.0906 67.0889C25.3725 71.914 14.0186 68.9658 14 62.6504C13.9814 56.5306 24.481 53.466 30.5931 57.8021C32.5957 59.2236 33.3259 60.5715 33.4333 63.0449C33.8705 73.1193 42.9101 81.0522 56.1525 82.9822C57.2511 83.1423 56.9096 83.1539 55.7219 82.9969L55.7219 82.9997ZM25.4307 67.8726C31.011 66.8639 32.8358 62.0084 28.6824 59.221C24.7535 56.5843 18.2332 57.8398 16.7145 61.5256C15.1802 65.2483 20.1058 68.8348 25.4307 67.8726ZM66.9818 82.9811C80.1916 80.9922 89.1604 73.1745 89.6671 63.2086C89.7885 60.8217 90.5342 59.4933 92.5441 58.0841C95.5367 55.9858 101.088 55.2964 100.63 57.08C100.5 57.5844 100.091 57.7694 98.9715 57.8295C94.763 58.0554 92.2831 60.0687 92.1162 63.3951C91.6276 73.1388 81.5849 81.1206 67.4782 82.978C66.145 83.1535 65.8239 83.1555 66.9818 82.9811ZM58.2057 61.0588C43.3618 60.7747 31.9588 58.7208 31.4892 56.2477C31.4593 56.0899 31.464 56.0696 31.5084 56.1656C33.0131 59.422 59.978 61.1774 79.2 59.2705C86.552 58.5411 91.011 57.4239 91.5925 56.1656C91.6368 56.0696 91.6416 56.0899 91.6116 56.2477C91.0616 59.1476 75.4855 61.3913 58.2055 61.0602L58.2057 61.0588ZM32.0476 55.0834C35.0719 52.4086 52.6492 50.4986 68.0746 51.1684C80.2002 51.6946 88.8975 53.1764 91.0534 55.0832L91.2901 55.2925L90.931 55.0688C84.0731 50.7977 39.0282 50.7977 32.1702 55.0688L31.8111 55.2925L32.0476 55.0834Z"
                    fill="white"
                  />
                  <g id="steam-1">
                    <path d="M62.6738 41.0526C69.6053 47.1379 69.9391 48.5044 65.8855 54.1859C65.0168 55.4034 65.0346 55.4071 66.2424 54.2702C72.2723 48.5942 71.9219 44.8767 64.8368 39.3423C61.9989 37.1258 61.1448 36.0239 61.0365 34.439C60.8743 32.0658 62.6689 30.0528 66.4551 28.3611C67.3179 27.9757 67.3315 27.9643 66.6126 28.2284C62.2775 29.8216 59.507 31.7427 58.932 33.5542C58.0583 36.3071 58.674 37.5408 62.6738 41.0526Z" fill="white"/>
                    <path
                      d="M51.051 37.3732C51.6987 40.183 53.3301 41.8327 58.764 45.1697C59.474 45.6061 60.0674 45.9637 60.0826 45.9647C60.0976 45.9655 59.6356 45.6443 59.056 45.2509C54.9379 42.456 53.5497 40.4958 52.9658 36.6515C52.6055 34.2776 52.9969 32.5227 54.6925 28.9146C56.4855 25.0993 56.6518 23.948 55.747 21.6267C54.8157 19.2364 52.2882 16.7444 50.0541 16.0132C49.972 15.9862 49.9839 16.0012 50.0859 16.0526C54.2739 18.1624 55.3933 22.267 53.1778 27.3831C53.0168 27.7548 52.6572 28.581 52.3776 29.2195C50.8807 32.646 50.5005 34.9826 51.051 37.3732Z"
                      fill="white"
                    />
                  </g>
                  <g id="steam-2">
                    <path
                      d="M62.6738 41.0526C69.6053 47.1379 69.9391 48.5044 65.8855 54.1859C65.0168 55.4034 65.0346 55.4071 66.2424 54.2702C72.2723 48.5942 71.9219 44.8767 64.8368 39.3423C61.9989 37.1258 61.1448 36.0239 61.0365 34.439C60.8743 32.0658 62.6689 30.0528 66.4551 28.3611C67.3179 27.9757 67.3315 27.9643 66.6126 28.2284C62.2775 29.8216 59.507 31.7427 58.932 33.5542C58.0583 36.3071 58.674 37.5408 62.6738 41.0526Z"
                      fill="white"
                      
                    />
                    <path d="M51.051 37.3732C51.6987 40.183 53.3301 41.8327 58.764 45.1697C59.474 45.6061 60.0674 45.9637 60.0826 45.9647C60.0976 45.9655 59.6356 45.6443 59.056 45.2509C54.9379 42.456 53.5497 40.4958 52.9658 36.6515C52.6055 34.2776 52.9969 32.5227 54.6925 28.9146C56.4855 25.0993 56.6518 23.948 55.747 21.6267C54.8157 19.2364 52.2882 16.7444 50.0541 16.0132C49.972 15.9862 49.9839 16.0012 50.0859 16.0526C54.2739 18.1624 55.3933 22.267 53.1778 27.3831C53.0168 27.7548 52.6572 28.581 52.3776 29.2195C50.8807 32.646 50.5005 34.9826 51.051 37.3732Z" fill="white"/>
                  </g>
                </g>
              </g>
              <defs>
                <clipPath id="clip0_0_1">
                  <rect
                    width="92"
                    height="87"
                    fill="white"
                    transform="translate(14 7)"
                  />
                </clipPath>
              </defs>
            </svg>