<svg width="157" height="45" viewBox="0 0 47 13" fill="transparent" xmlns="http://www.w3.org/2000/svg">
<path id="{ jay.ser }" d="M3.84375 0.0742188V1.03516C3.44531 1.03516 3.14453 1.11719 2.94141 1.28125C2.74219 1.44531 2.59961 1.74609 2.51367 2.18359C2.43555 2.44531 2.37109 2.73633 2.32031 3.05664C2.27344 3.37695 2.23633 3.64844 2.20898 3.87109C2.18555 4.09375 2.14844 4.31445 2.09766 4.5332C2.04688 4.75195 1.96484 4.9375 1.85156 5.08984C1.73828 5.24219 1.58594 5.35938 1.39453 5.44141C1.58203 5.51562 1.73633 5.64062 1.85742 5.81641C1.97852 5.98828 2.06641 6.19531 2.12109 6.4375C2.17969 6.67578 2.22266 6.91016 2.25 7.14062C2.27734 7.37109 2.30469 7.62891 2.33203 7.91406C2.36328 8.19922 2.39648 8.42383 2.43164 8.58789C2.50977 9.0957 2.65625 9.4668 2.87109 9.70117C3.08594 9.93164 3.41211 10.0469 3.84961 10.0469V11.0078C3.17773 11.0078 2.64258 10.8789 2.24414 10.6211C1.84961 10.3633 1.57031 9.95312 1.40625 9.39062C1.36719 9.25391 1.33789 9.03711 1.31836 8.74023C1.29883 8.43945 1.27734 8.14844 1.25391 7.86719C1.23438 7.58594 1.19922 7.30859 1.14844 7.03516C1.09766 6.75781 1.00586 6.53516 0.873047 6.36719C0.740234 6.19531 0.566406 6.10938 0.351562 6.10938V4.97266C0.679688 4.97266 0.912109 4.74219 1.04883 4.28125C1.11133 4.08203 1.18164 3.66797 1.25977 3.03906C1.25977 3.02344 1.26172 3.00781 1.26562 2.99219C1.28906 2.81641 1.30859 2.67383 1.32422 2.56445C1.33984 2.45508 1.36523 2.31055 1.40039 2.13086C1.43945 1.95117 1.47852 1.80273 1.51758 1.68555C1.56055 1.56445 1.61719 1.42578 1.6875 1.26953C1.76172 1.11328 1.8418 0.984375 1.92773 0.882812C2.01367 0.777344 2.11914 0.669922 2.24414 0.560547C2.36914 0.447266 2.50781 0.359375 2.66016 0.296875C2.8125 0.230469 2.98828 0.177734 3.1875 0.138672C3.39062 0.0957031 3.60938 0.0742188 3.84375 0.0742188ZM8.10352 3.57227V9.64258C8.10352 10.4238 7.99609 10.9727 7.78125 11.2891C7.57031 11.6094 7.17969 11.7695 6.60938 11.7695C6.4375 11.7695 6.23047 11.7539 5.98828 11.7227L5.95898 11.0078C6.00586 11.0039 6.07227 11.002 6.1582 11.002C6.24805 11.002 6.31641 11 6.36328 10.9961C6.41406 10.9961 6.47461 10.9902 6.54492 10.9785C6.61523 10.9668 6.66992 10.9473 6.70898 10.9199C6.75195 10.8926 6.79297 10.8574 6.83203 10.8145C6.875 10.7715 6.9043 10.7129 6.91992 10.6387C6.93945 10.5645 6.94922 10.4766 6.94922 10.375V3.57227H8.10352ZM8.10938 1.08789V2.10156H6.94336V1.08789H8.10938ZM14.5078 10H13.5938L13.4062 9.08008C13.2891 9.48242 13.0762 9.75195 12.7676 9.88867C12.4629 10.0215 12.0156 10.0879 11.4258 10.0879C11.0352 10.0879 10.7148 10.0508 10.4648 9.97656C10.2148 9.89844 10.0156 9.76953 9.86719 9.58984C9.71875 9.41016 9.61523 9.19141 9.55664 8.93359C9.50195 8.67188 9.47461 8.33594 9.47461 7.92578C9.47461 7.74219 9.50586 7.57812 9.56836 7.43359C9.63477 7.28906 9.72266 7.16602 9.83203 7.06445C9.94531 6.96289 10.0938 6.875 10.2773 6.80078C10.4648 6.72656 10.6582 6.66797 10.8574 6.625C11.0566 6.58203 11.2969 6.54883 11.5781 6.52539C11.8633 6.49805 12.1406 6.48047 12.4102 6.47266C12.6797 6.46484 12.9941 6.46094 13.3535 6.46094V4.7207C13.3535 4.52148 13.2598 4.38477 13.0723 4.31055C12.8848 4.23242 12.5508 4.19336 12.0703 4.19336C11.7344 4.19336 11.4824 4.20117 11.3145 4.2168C11.1465 4.23242 11.0176 4.2793 10.9277 4.35742C10.8418 4.43164 10.791 4.50586 10.7754 4.58008C10.7637 4.6543 10.7559 4.79297 10.752 4.99609C10.748 5.07031 10.7461 5.12891 10.7461 5.17188L9.84961 5.13672C9.8418 5.07422 9.83789 4.98242 9.83789 4.86133C9.83789 4.59961 9.875 4.37891 9.94922 4.19922C10.0273 4.01562 10.127 3.87305 10.248 3.77148C10.3691 3.66602 10.5352 3.58398 10.7461 3.52539C10.957 3.4668 11.166 3.42969 11.373 3.41406C11.5801 3.39844 11.8379 3.39062 12.1465 3.39062C12.6152 3.39062 12.9961 3.42773 13.2891 3.50195C13.582 3.57227 13.8223 3.70117 14.0098 3.88867C14.1973 4.07617 14.3262 4.31641 14.3965 4.60938C14.4707 4.89844 14.5078 5.27734 14.5078 5.74609V10ZM13.3535 8.16016V7.1582C12.584 7.1582 11.9922 7.1875 11.5781 7.24609C11.1641 7.30469 10.8867 7.38672 10.7461 7.49219C10.6094 7.59375 10.541 7.73828 10.541 7.92578C10.541 7.93359 10.541 7.94531 10.541 7.96094C10.541 8.55469 10.5898 8.92383 10.6875 9.06836C10.7852 9.21289 11.084 9.28516 11.584 9.28516C12.0098 9.28516 12.3555 9.23438 12.6211 9.13281C12.8867 9.03125 13.0703 8.90234 13.1719 8.74609C13.2773 8.58594 13.3379 8.39062 13.3535 8.16016ZM21.1289 3.57227L19.1016 9.68945C19.0508 9.83789 18.9961 10.0156 18.9375 10.2227C18.8828 10.4336 18.8359 10.6035 18.7969 10.7324C18.7617 10.8613 18.7148 11.002 18.6562 11.1543C18.6016 11.3105 18.541 11.4336 18.4746 11.5234C18.4082 11.6172 18.3262 11.7051 18.2285 11.7871C18.1309 11.873 18.0137 11.9336 17.877 11.9688C17.7402 12.0078 17.582 12.0273 17.4023 12.0273C16.9375 12.0273 16.5156 11.9824 16.1367 11.8926L16.3125 11.002C16.3867 11.0098 16.4863 11.0234 16.6113 11.043C16.7363 11.0664 16.8438 11.084 16.9336 11.0957C17.0273 11.1074 17.1133 11.1133 17.1914 11.1133C17.4414 11.1133 17.6309 11.0273 17.7598 10.8555C17.8887 10.6836 17.9551 10.3652 17.959 9.90039L15.5508 3.57227H16.7168L17.9004 6.83594C18.1152 7.42969 18.3145 7.99023 18.498 8.51758C18.627 8.04492 18.8164 7.39258 19.0664 6.56055L19.9512 3.57227H21.1289ZM23.1797 9.31445C23.1797 9.5918 23.0996 9.80664 22.9395 9.95898C22.7832 10.1074 22.5938 10.1816 22.3711 10.1816C22.1484 10.1816 21.9531 10.1055 21.7852 9.95312C21.6172 9.79688 21.5332 9.58398 21.5332 9.31445C21.5332 9.04102 21.6113 8.83008 21.7676 8.68164C21.9277 8.5293 22.1172 8.45312 22.3359 8.45312C22.5625 8.45312 22.7598 8.53125 22.9277 8.6875C23.0957 8.83984 23.1797 9.04883 23.1797 9.31445ZM29.3613 8.21875C29.3613 8.59375 29.3203 8.90234 29.2383 9.14453C29.1562 9.38281 29.0195 9.57227 28.8281 9.71289C28.6406 9.85352 28.4102 9.95117 28.1367 10.0059C27.8672 10.0605 27.5254 10.0879 27.1113 10.0879C26.8691 10.0879 26.6738 10.0859 26.5254 10.082C26.3809 10.0781 26.2129 10.0684 26.0215 10.0527C25.8301 10.0371 25.6777 10.0137 25.5645 9.98242C25.4512 9.94727 25.3281 9.90234 25.1953 9.84766C25.0664 9.78906 24.9648 9.7168 24.8906 9.63086C24.8164 9.54102 24.7461 9.43555 24.6797 9.31445C24.6133 9.19336 24.5664 9.05078 24.5391 8.88672C24.5117 8.71875 24.498 8.5293 24.498 8.31836L25.4062 8.08398C25.4414 8.5293 25.4824 8.81055 25.5293 8.92773C25.5996 9.08789 25.7461 9.18945 25.9688 9.23242C26.1367 9.26758 26.4902 9.28516 27.0293 9.28516C27.3535 9.28516 27.5938 9.27148 27.75 9.24414C27.9102 9.21289 28.0176 9.15625 28.0723 9.07422C28.2285 8.94531 28.3066 8.50586 28.3066 7.75586C28.3066 7.64258 28.2832 7.54688 28.2363 7.46875C28.1895 7.38672 28.1328 7.32617 28.0664 7.28711C28 7.24414 27.9062 7.20898 27.7852 7.18164C27.668 7.15039 27.5605 7.13086 27.4629 7.12305C27.3691 7.11133 27.2441 7.09766 27.0879 7.08203C26.9316 7.06641 26.8066 7.05273 26.7129 7.04102C26.4277 7.00977 26.1953 6.98047 26.0156 6.95312C25.8359 6.92188 25.6543 6.87695 25.4707 6.81836C25.2871 6.75977 25.1426 6.6875 25.0371 6.60156C24.9355 6.51562 24.8418 6.4043 24.7559 6.26758C24.6699 6.13086 24.6094 5.9668 24.5742 5.77539C24.5391 5.58398 24.5215 5.35547 24.5215 5.08984C24.5215 4.80859 24.5508 4.57031 24.6094 4.375C24.668 4.17969 24.7539 4.01758 24.8672 3.88867C24.9805 3.75977 25.1348 3.66016 25.3301 3.58984C25.5293 3.51562 25.752 3.46484 25.998 3.4375C26.2441 3.40625 26.5449 3.39062 26.9004 3.39062C27.123 3.39062 27.3047 3.39453 27.4453 3.40234C27.5898 3.40625 27.7461 3.41992 27.9141 3.44336C28.0859 3.46289 28.2246 3.49219 28.3301 3.53125C28.4355 3.57031 28.541 3.625 28.6465 3.69531C28.7559 3.76562 28.8398 3.85352 28.8984 3.95898C28.957 4.06055 29.0039 4.18555 29.0391 4.33398C29.0781 4.48242 29.0977 4.65234 29.0977 4.84375L28.3125 5.08398C28.2969 4.93164 28.2812 4.8125 28.2656 4.72656C28.2539 4.63672 28.2246 4.55469 28.1777 4.48047C28.1309 4.40625 28.082 4.35352 28.0312 4.32227C27.9805 4.29102 27.8926 4.26367 27.7676 4.24023C27.6465 4.2168 27.5234 4.20312 27.3984 4.19922C27.2734 4.19531 27.0938 4.19336 26.8594 4.19336C26.3594 4.19336 26.0195 4.24414 25.8398 4.3457C25.6641 4.44336 25.5762 4.60547 25.5762 4.83203V5.42969C25.5762 5.6875 25.6523 5.85156 25.8047 5.92188C25.9609 5.98828 26.375 6.06445 27.0469 6.15039C27.1172 6.16211 27.1699 6.16992 27.2051 6.17383C27.4746 6.20508 27.6875 6.23438 27.8438 6.26172C28.0039 6.28906 28.1719 6.32617 28.3477 6.37305C28.5234 6.41602 28.6562 6.46875 28.7461 6.53125C28.8398 6.58984 28.9316 6.66602 29.0215 6.75977C29.1152 6.85352 29.1816 6.96875 29.2207 7.10547C29.2637 7.24219 29.2969 7.40039 29.3203 7.58008C29.3477 7.75977 29.3613 7.97266 29.3613 8.21875ZM35.8477 6.69531C35.3789 6.74219 35.0879 6.76953 34.9746 6.77734H31.7812C31.7852 7.34375 31.8008 7.96484 31.8281 8.64062C31.8477 8.90234 31.959 9.07617 32.1621 9.16211C32.3691 9.24414 32.7695 9.28516 33.3633 9.28516C33.5859 9.28516 33.7773 9.27734 33.9375 9.26172C34.0977 9.24219 34.2266 9.21094 34.3242 9.16797C34.4258 9.12109 34.5039 9.07812 34.5586 9.03906C34.6172 8.99609 34.6602 8.93164 34.6875 8.8457C34.7148 8.75586 34.7324 8.68164 34.7402 8.62305C34.748 8.56055 34.7559 8.46875 34.7637 8.34766C34.7715 8.22266 34.7812 8.12109 34.793 8.04297L35.6895 8.20703C35.6816 8.48047 35.6621 8.71289 35.6309 8.9043C35.5996 9.0918 35.5469 9.25781 35.4727 9.40234C35.3984 9.54688 35.3105 9.66211 35.209 9.74805C35.1074 9.83008 34.9707 9.89844 34.7988 9.95312C34.627 10.0078 34.4375 10.043 34.2305 10.0586C34.0234 10.0781 33.7676 10.0879 33.4629 10.0879C33.0723 10.0879 32.7324 10.0645 32.4434 10.0176C32.1543 9.97461 31.9062 9.91992 31.6992 9.85352C31.4961 9.78711 31.3281 9.67969 31.1953 9.53125C31.0625 9.37891 30.957 9.23438 30.8789 9.09766C30.8047 8.96094 30.75 8.75977 30.7148 8.49414C30.6797 8.22852 30.6562 7.98828 30.6445 7.77344C30.6367 7.55469 30.6328 7.25391 30.6328 6.87109C30.6328 6.33203 30.6387 5.91211 30.6504 5.61133C30.666 5.31055 30.7051 5.00977 30.7676 4.70898C30.8301 4.4043 30.9141 4.18359 31.0195 4.04688C31.125 3.91016 31.2812 3.7832 31.4883 3.66602C31.6953 3.54883 31.9395 3.47461 32.2207 3.44336C32.502 3.4082 32.8594 3.39062 33.293 3.39062C33.5938 3.39062 33.8535 3.40039 34.0723 3.41992C34.291 3.43555 34.4922 3.4707 34.6758 3.52539C34.8594 3.58008 35.0098 3.64258 35.127 3.71289C35.248 3.7832 35.3535 3.88672 35.4434 4.02344C35.5371 4.16016 35.6074 4.30273 35.6543 4.45117C35.7051 4.5957 35.7461 4.78906 35.7773 5.03125C35.8086 5.27344 35.8281 5.51953 35.8359 5.76953C35.8438 6.01562 35.8477 6.32422 35.8477 6.69531ZM31.7871 6.16211H34.6934C34.6855 5.66211 34.666 5.20508 34.6348 4.79102C34.6191 4.55273 34.5156 4.39453 34.3242 4.31641C34.1367 4.23438 33.791 4.19336 33.2871 4.19336C32.7285 4.19336 32.375 4.22461 32.2266 4.28711C32.1602 4.30664 32.1016 4.3418 32.0508 4.39258C32.0039 4.43945 31.9648 4.50781 31.9336 4.59766C31.9023 4.6875 31.877 4.77148 31.8574 4.84961C31.8418 4.92773 31.8281 5.03711 31.8164 5.17773C31.8086 5.31445 31.8027 5.42188 31.7988 5.5C31.7949 5.57422 31.791 5.68945 31.7871 5.8457C31.7871 6.00195 31.7871 6.10742 31.7871 6.16211ZM40.2832 3.42578L40.2363 4.4043C40.0879 4.38477 39.9473 4.375 39.8145 4.375C39.5371 4.375 39.3125 4.40234 39.1406 4.45703C38.9688 4.51172 38.8379 4.60547 38.748 4.73828C38.6621 4.87109 38.6035 5.02344 38.5723 5.19531C38.5449 5.36328 38.5312 5.58984 38.5312 5.875C38.5312 6.03516 38.5371 6.26953 38.5488 6.57812C38.5645 6.88672 38.5723 7.10742 38.5723 7.24023V10H37.418V3.57227H38.4668L38.584 4.29297C38.7051 4.01172 38.8887 3.79492 39.1348 3.64258C39.3809 3.48633 39.6758 3.4082 40.0195 3.4082C40.1055 3.4082 40.1934 3.41406 40.2832 3.42578ZM42.9961 11.0078V10.0469C43.375 10.0469 43.6621 9.97266 43.8574 9.82422C44.0527 9.67188 44.2012 9.39648 44.3027 8.99805C44.373 8.7793 44.4277 8.47266 44.4668 8.07812C44.5059 7.67969 44.5371 7.32812 44.5605 7.02344C44.5879 6.71484 44.6602 6.41797 44.7773 6.13281C44.8945 5.84766 45.0605 5.65625 45.2754 5.55859C45.1426 5.49219 45.0273 5.39453 44.9297 5.26562C44.8359 5.13281 44.7617 4.9707 44.707 4.7793C44.6562 4.58398 44.6172 4.40234 44.5898 4.23438C44.5625 4.0625 44.5371 3.85352 44.5137 3.60742C44.4941 3.32227 44.4727 3.08203 44.4492 2.88672C44.4297 2.69141 44.4023 2.49805 44.3672 2.30664C44.332 2.11133 44.2891 1.95313 44.2383 1.83203C44.1914 1.70703 44.1309 1.58984 44.0566 1.48047C43.9863 1.36719 43.9004 1.28125 43.7988 1.22266C43.7012 1.16406 43.5859 1.11914 43.4531 1.08789C43.3242 1.05273 43.1738 1.03516 43.002 1.03516V0.0742188C43.3613 0.0742188 43.6738 0.117187 43.9395 0.203125C44.209 0.289063 44.4316 0.40625 44.6074 0.554688C44.7871 0.699219 44.9395 0.896484 45.0645 1.14648C45.1895 1.39258 45.2871 1.65234 45.3574 1.92578C45.4316 2.19922 45.498 2.5332 45.5566 2.92773L45.668 3.66016C45.7383 4.12891 45.8301 4.46484 45.9434 4.66797C46.0566 4.87109 46.2402 4.97266 46.4941 4.97266V6.10938C46.2207 6.10938 46.0254 6.21289 45.9082 6.41992C45.791 6.62305 45.707 6.95312 45.6562 7.41016L45.5859 8.21875C45.5586 8.46094 45.5312 8.66797 45.5039 8.83984C45.4766 9.00781 45.4336 9.19727 45.375 9.4082C45.3203 9.61914 45.2539 9.79492 45.1758 9.93555C45.1016 10.0762 45 10.2188 44.8711 10.3633C44.7422 10.5117 44.5938 10.6289 44.4258 10.7148C44.2578 10.8008 44.0527 10.8711 43.8105 10.9258C43.5684 10.9805 43.2969 11.0078 42.9961 11.0078Z" fill="white"/>
</svg>
